M48
; DRILL file {KiCad 8.0.6} date 2024-12-04T15:20:57-0500
; FORMAT={-:-/ absolute / metric / decimal}
; #@! TF.CreationDate,2024-12-04T15:20:57-05:00
; #@! TF.GenerationSoftware,Kicad,Pcbnew,8.0.6
; #@! TF.FileFunction,Plated,1,2,PTH
FMAT,2
METRIC
; #@! TA.AperFunction,Plated,PTH,ComponentDrill
T1C0.800
; #@! TA.AperFunction,Plated,PTH,ComponentDrill
T2C1.000
%
G90
G05
T1
X119.0Y-96.5
X119.0Y-99.0
X119.0Y-101.5
T2
X123.6Y-61.5
X123.6Y-76.74
X126.14Y-61.5
X126.14Y-76.74
X128.68Y-61.5
X128.68Y-76.74
X129.005Y-82.21
X129.005Y-84.751
X131.22Y-61.5
X131.22Y-76.74
X131.545Y-82.21
X131.545Y-84.751
X133.76Y-61.5
X133.76Y-76.74
X134.085Y-82.21
X134.085Y-84.751
X136.3Y-61.5
X136.3Y-76.74
X136.625Y-82.21
X136.625Y-84.751
X138.84Y-61.5
X138.84Y-76.74
X141.38Y-61.5
X141.38Y-76.74
X143.92Y-61.5
X143.92Y-76.74
X146.46Y-61.5
X146.46Y-76.74
X149.0Y-61.5
X149.0Y-76.74
X151.54Y-61.5
X151.54Y-76.74
X154.08Y-61.5
X154.08Y-76.74
X156.62Y-61.5
X156.62Y-76.74
X159.16Y-61.5
X159.16Y-76.74
M30
