%TF.GenerationSoftware,KiCad,Pcbnew,8.0.6*%
%TF.CreationDate,2024-12-04T15:20:49-05:00*%
%TF.ProjectId,gnahs,676e6168-732e-46b6-9963-61645f706362,rev?*%
%TF.SameCoordinates,Original*%
%TF.FileFunction,Copper,L2,Bot*%
%TF.FilePolarity,Positive*%
%FSLAX46Y46*%
G04 Gerber Fmt 4.6, Leading zero omitted, Abs format (unit mm)*
G04 Created by KiCad (PCBNEW 8.0.6) date 2024-12-04 15:20:49*
%MOMM*%
%LPD*%
G01*
G04 APERTURE LIST*
%TA.AperFunction,ComponentPad*%
%ADD10C,1.500000*%
%TD*%
%TA.AperFunction,ComponentPad*%
%ADD11R,1.700000X1.700000*%
%TD*%
%TA.AperFunction,ComponentPad*%
%ADD12C,1.700000*%
%TD*%
%TA.AperFunction,ComponentPad*%
%ADD13R,1.600000X1.600000*%
%TD*%
%TA.AperFunction,ComponentPad*%
%ADD14O,1.600000X1.600000*%
%TD*%
%TA.AperFunction,Conductor*%
%ADD15C,0.200000*%
%TD*%
G04 APERTURE END LIST*
D10*
%TO.P,BT2,1,+*%
%TO.N,Net-(A1-VIN)*%
X119000000Y-101500000D03*
%TO.P,BT2,2,pin_2*%
%TO.N,unconnected-(BT2-pin_2-Pad2)*%
X119000000Y-99000000D03*
%TO.P,BT2,3,-*%
%TO.N,Net-(BT2--)*%
X119000000Y-96500000D03*
%TD*%
D11*
%TO.P,U1,1,GND*%
%TO.N,Net-(BT2--)*%
X136625000Y-82210500D03*
D12*
%TO.P,U1,2,VCC*%
%TO.N,Net-(A1-3V3)*%
X136625000Y-84750500D03*
%TO.P,U1,3,CE*%
%TO.N,Net-(A1-D7)*%
X134085000Y-82210500D03*
%TO.P,U1,4,~{CSN}*%
%TO.N,Net-(A1-D8)*%
X134085000Y-84750500D03*
%TO.P,U1,5,SCK*%
%TO.N,Net-(A1-D13)*%
X131545000Y-82210500D03*
%TO.P,U1,6,MOSI*%
%TO.N,Net-(A1-D11)*%
X131545000Y-84750500D03*
%TO.P,U1,7,MISO*%
%TO.N,Net-(A1-D12)*%
X129005000Y-82210500D03*
%TO.P,U1,8,IRQ*%
%TO.N,unconnected-(U1-IRQ-Pad8)*%
X129005000Y-84750500D03*
%TD*%
D13*
%TO.P,A1,1,D1/TX*%
%TO.N,unconnected-(A1-D1{slash}TX-Pad1)*%
X123600000Y-76740000D03*
D14*
%TO.P,A1,2,D0/RX*%
%TO.N,unconnected-(A1-D0{slash}RX-Pad2)*%
X126140000Y-76740000D03*
%TO.P,A1,3,~{RESET}*%
%TO.N,unconnected-(A1-~{RESET}-Pad3)*%
X128680000Y-76740000D03*
%TO.P,A1,4,GND*%
%TO.N,Net-(BT2--)*%
X131220000Y-76740000D03*
%TO.P,A1,5,D2*%
%TO.N,unconnected-(A1-D2-Pad5)*%
X133760000Y-76740000D03*
%TO.P,A1,6,D3*%
%TO.N,unconnected-(A1-D3-Pad6)*%
X136300000Y-76740000D03*
%TO.P,A1,7,D4*%
%TO.N,unconnected-(A1-D4-Pad7)*%
X138840000Y-76740000D03*
%TO.P,A1,8,D5*%
%TO.N,unconnected-(A1-D5-Pad8)*%
X141380000Y-76740000D03*
%TO.P,A1,9,D6*%
%TO.N,unconnected-(A1-D6-Pad9)*%
X143920000Y-76740000D03*
%TO.P,A1,10,D7*%
%TO.N,Net-(A1-D7)*%
X146460000Y-76740000D03*
%TO.P,A1,11,D8*%
%TO.N,Net-(A1-D8)*%
X149000000Y-76740000D03*
%TO.P,A1,12,D9*%
%TO.N,unconnected-(A1-D9-Pad12)*%
X151540000Y-76740000D03*
%TO.P,A1,13,D10*%
%TO.N,unconnected-(A1-D10-Pad13)*%
X154080000Y-76740000D03*
%TO.P,A1,14,D11*%
%TO.N,Net-(A1-D11)*%
X156620000Y-76740000D03*
%TO.P,A1,15,D12*%
%TO.N,Net-(A1-D12)*%
X159160000Y-76740000D03*
%TO.P,A1,16,D13*%
%TO.N,Net-(A1-D13)*%
X159160000Y-61500000D03*
%TO.P,A1,17,3V3*%
%TO.N,Net-(A1-3V3)*%
X156620000Y-61500000D03*
%TO.P,A1,18,AREF*%
%TO.N,unconnected-(A1-AREF-Pad18)*%
X154080000Y-61500000D03*
%TO.P,A1,19,A0*%
%TO.N,unconnected-(A1-A0-Pad19)*%
X151540000Y-61500000D03*
%TO.P,A1,20,A1*%
%TO.N,unconnected-(A1-A1-Pad20)*%
X149000000Y-61500000D03*
%TO.P,A1,21,A2*%
%TO.N,unconnected-(A1-A2-Pad21)*%
X146460000Y-61500000D03*
%TO.P,A1,22,A3*%
%TO.N,unconnected-(A1-A3-Pad22)*%
X143920000Y-61500000D03*
%TO.P,A1,23,A4*%
%TO.N,Net-(A1-A4)*%
X141380000Y-61500000D03*
%TO.P,A1,24,A5*%
%TO.N,Net-(A1-A5)*%
X138840000Y-61500000D03*
%TO.P,A1,25,A6*%
%TO.N,unconnected-(A1-A6-Pad25)*%
X136300000Y-61500000D03*
%TO.P,A1,26,A7*%
%TO.N,unconnected-(A1-A7-Pad26)*%
X133760000Y-61500000D03*
%TO.P,A1,27,+5V*%
%TO.N,Net-(A1-+5V)*%
X131220000Y-61500000D03*
%TO.P,A1,28,~{RESET}*%
%TO.N,unconnected-(A1-~{RESET}-Pad28)*%
X128680000Y-61500000D03*
%TO.P,A1,29,GND*%
%TO.N,Net-(JS1-GND)*%
X126140000Y-61500000D03*
%TO.P,A1,30,VIN*%
%TO.N,Net-(A1-VIN)*%
X123600000Y-61500000D03*
%TD*%
D15*
%TO.N,Net-(A1-D7)*%
X134085000Y-82210500D02*
X134085000Y-79915000D01*
X134085000Y-79915000D02*
X135000000Y-79000000D01*
X135000000Y-79000000D02*
X144200000Y-79000000D01*
X144200000Y-79000000D02*
X146460000Y-76740000D01*
%TO.N,Net-(A1-3V3)*%
X156620000Y-61500000D02*
X155500000Y-62620000D01*
X155500000Y-62620000D02*
X155500000Y-80000000D01*
X155500000Y-80000000D02*
X153500000Y-82000000D01*
X153500000Y-82000000D02*
X139375500Y-82000000D01*
X139375500Y-82000000D02*
X136625000Y-84750500D01*
%TO.N,Net-(A1-D11)*%
X133794500Y-87000000D02*
X140500000Y-87000000D01*
X140500000Y-87000000D02*
X142000000Y-85500000D01*
X156620000Y-79880000D02*
X156620000Y-76740000D01*
X142000000Y-85500000D02*
X151000000Y-85500000D01*
X151000000Y-85500000D02*
X156620000Y-79880000D01*
X131545000Y-84750500D02*
X133794500Y-87000000D01*
%TO.N,Net-(A1-D12)*%
X129005000Y-82210500D02*
X126500000Y-84715500D01*
X126500000Y-84715500D02*
X126500000Y-88000000D01*
X126500000Y-88000000D02*
X128000000Y-89500000D01*
X128000000Y-89500000D02*
X129000000Y-89500000D01*
X130000000Y-88500000D02*
X141000000Y-88500000D01*
X129000000Y-89500000D02*
X130000000Y-88500000D01*
X155000000Y-87500000D02*
X159160000Y-83340000D01*
X141000000Y-88500000D02*
X142000000Y-87500000D01*
X142000000Y-87500000D02*
X155000000Y-87500000D01*
X159160000Y-83340000D02*
X159160000Y-76740000D01*
%TO.N,Net-(A1-D13)*%
X131545000Y-81008419D02*
X130536581Y-80000000D01*
X118500000Y-77000000D02*
X118500000Y-60000000D01*
X118500000Y-60000000D02*
X119000000Y-59500000D01*
X130536581Y-80000000D02*
X129334500Y-80000000D01*
X129334500Y-80000000D02*
X126534500Y-82800000D01*
X124300000Y-82800000D02*
X118500000Y-77000000D01*
X126534500Y-82800000D02*
X124300000Y-82800000D01*
X131545000Y-82210500D02*
X131545000Y-81008419D01*
X119000000Y-59500000D02*
X158000000Y-59500000D01*
X158500000Y-60000000D02*
X158500000Y-60840000D01*
X158000000Y-59500000D02*
X158500000Y-60000000D01*
X158500000Y-60840000D02*
X159160000Y-61500000D01*
%TD*%
M02*
